<?xml version="1.0" encoding="utf-8"?>
<svg width="800px" height="800px" viewBox="0 0 1024 1024" class="icon"  version="1.1" xmlns="http://www.w3.org/2000/svg"><path d="M505.896782 47.767381c-261.274168 0-473.087577 211.813409-473.087576 473.087577s211.813409 473.087577 473.087576 473.087576 473.087577-211.813409 473.087577-473.087576S767.17095 47.767381 505.896782 47.767381z m0 654.84352c-106.400606 0-192.621787-86.221181-192.621787-192.621788s86.221181-192.621787 192.621787-192.621787 192.621787 86.221181 192.621788 192.621787-86.291738 192.621787-192.621788 192.621788z" fill="#DB9145" /><path d="M505.896782 47.767381c-261.274168 0-473.087577 211.813409-473.087576 473.087577 0 58.633225 10.72473 114.655826 30.19858 166.44498 18.274375-20.391098 45.721215-50.730793 50.307449-54.046992 6.985186-5.080135 34.996486-36.901537 53.411975 20.955557 7.620203 16.510439 31.186385 89.043478 85.233377 27.376283 9.525253-8.890236 50.871908-38.806587 53.411976 41.346655 0 52.141942 16.510439 113.17412 34.361469 120.159305s41.981672 12.700338 49.601874-47.696823c5.715152-16.510439 38.17157-81.423276 79.518225 9.525253 19.685523 53.411975 35.631503 136.740302 79.518225 136.740302s91.583546-167.856129 105.553917-196.502446c15.240405-24.130641 50.236891-59.127127 96.028664-6.350169 26.10625 25.400675 59.127127 54.682009 61.667195-28.0113 2.540068-82.693309 6.350169-89.678495 8.255219-96.028664 1.905051-6.350169 31.186385-54.682009 80.153242 17.780472 12.770895 21.520017 33.585337 82.340522 58.915455 24.906774 13.053125-43.322263 20.179425-89.184593 20.179426-136.740302-0.141115-261.133053-211.954524-472.946462-473.228692-472.946462z m0 654.84352c-106.400606 0-192.621787-86.221181-192.621787-192.621788s86.221181-192.621787 192.621787-192.621787 192.621787 86.221181 192.621788 192.621787-86.291738 192.621787-192.621788 192.621788z" fill="#5B2B20" /><path d="M687.017708 244.763729m-21.026114 0a21.026115 21.026115 0 1 0 42.052229 0 21.026115 21.026115 0 1 0-42.052229 0Z" fill="#EBA824" /><path d="M830.319851 295.423965m-20.249983 0a20.249983 20.249983 0 1 0 40.499966 0 20.249983 20.249983 0 1 0-40.499966 0Z" fill="#EBA824" /><path d="M487.975195 147.253359m-38.101013 0a38.101013 38.101013 0 1 0 76.202026 0 38.101013 38.101013 0 1 0-76.202026 0Z" fill="#3D7C38" /><path d="M339.592917 270.093847m-25.330118 0a25.330118 25.330118 0 1 0 50.660236 0 25.330118 25.330118 0 1 0-50.660236 0Z" fill="#FFFCF4" /><path d="M134.200234 490.515262m-47.273479 0a47.273479 47.273479 0 1 0 94.546958 0 47.273479 47.273479 0 1 0-94.546958 0Z" fill="#FDFDEC" /><path d="M899.677806 490.515262m-47.273479 0a47.273479 47.273479 0 1 0 94.546958 0 47.273479 47.273479 0 1 0-94.546958 0Z" fill="#F5ECDA" /><path d="M181.755943 317.367326s65.688969 4.021774 73.520843 53.059188c-20.955557 3.245642-61.667195 5.997382-73.520843-53.059188zM792.007166 495.736512s-3.951216 44.380624-37.254324 48.825743c-1.834493-14.252601-2.963412-41.911114 37.254324-48.825743z" fill="#3D7C38" /></svg>