<svg id="logo" enable-background="new 0 0 512 512" height="512" viewBox="0 0 512 512" width="512" xmlns="http://www.w3.org/2000/svg"><g><g><g><circle cx="256" cy="256" fill="#54469c" r="248.5"/></g><g><circle cx="256" cy="256" fill="#d8ecfe" r="219"/></g><g><path d="m90 256c0-111.788 84.194-204.269 192.5-217.393-8.69-1.052-17.531-1.607-26.5-1.607-120.758 0-219 98.243-219 219s98.242 219 219 219c8.969 0 17.81-.555 26.5-1.607-108.306-13.124-192.5-105.605-192.5-217.393z" fill="#b3dafe"/></g></g><g><g><g><g><circle cx="194.468" cy="273.005" fill="#fe653b" r="17.912"/></g><g><circle cx="366.867" cy="273.005" fill="#fe653b" r="17.912"/></g></g><g><g><g><circle cx="227.024" cy="219.361" fill="#fe653b" r="15.764"/></g><g><circle cx="334.311" cy="326.649" fill="#fe653b" r="15.764"/></g></g><g><g><circle cx="334.311" cy="219.361" fill="#fe653b" r="15.764"/></g><g><circle cx="227.024" cy="326.649" fill="#fe653b" r="15.764"/></g></g></g><g><circle cx="280.668" cy="273.005" fill="#fe653b" r="35.823"/></g><g><path d="m270 273.005c0-15.358 9.667-28.453 23.245-33.547-3.914-1.468-8.151-2.276-12.578-2.276-19.785 0-35.823 16.039-35.823 35.823 0 19.785 16.039 35.823 35.823 35.823 4.427 0 8.664-.808 12.578-2.276-13.578-5.094-23.245-18.189-23.245-33.547z" fill="#ef4424"/></g><g><g><circle cx="280.668" cy="186.805" fill="#fe653b" r="17.912"/></g><g><circle cx="280.668" cy="359.205" fill="#fe653b" r="17.912"/></g></g></g><g><circle cx="354.463" cy="398.197" fill="#1ee6a6" r="21.081"/></g><g><circle cx="109.913" cy="309.996" fill="#1ee6a6" r="22.711"/></g><g><circle cx="410.814" cy="218.438" fill="#fff" r="18.471"/></g><g><g><path d="m140.985 176.508c-9.578-9.578-9.578-25.252 0-34.83l27.706-27.706c9.578-9.578 25.252-9.578 34.83 0 9.578 9.578 9.578 25.252 0 34.83l-27.706 27.706c-9.578 9.579-25.251 9.579-34.83 0z" fill="#1e9efd"/></g><g><path d="m166.184 176.508c-9.578-9.578-9.578-25.252 0-34.83l27.706-27.706c1.472-1.472 3.1-2.69 4.816-3.709-9.448-5.615-21.908-4.397-30.014 3.709l-27.706 27.706c-9.578 9.578-9.578 25.252 0 34.83 8.106 8.106 20.566 9.324 30.014 3.709-1.716-1.019-3.344-2.237-4.816-3.709z" fill="#0182fc"/></g></g><g><g><path d="m152.245 409.897c-9.331-5.494-18.324-11.638-26.907-18.408-8.03-6.323-9.582-16.961-3.971-22.871 5.62-5.931 15.472-5.827 22.345-.429 7.525 5.935 15.409 11.322 23.59 16.139 7.452 4.407 10.97 13.487 7.469 20.869-3.487 7.364-13.804 9.843-22.526 4.7z" fill="#1e9efd"/></g><g><path d="m215.478 435.866c-10.447-2.637-20.706-5.973-30.706-9.984-9.354-3.743-13.7-13.425-10.001-20.685 3.705-7.281 13.046-10.047 21.048-6.855 8.767 3.516 17.762 6.441 26.921 8.753 8.348 2.124 14.278 9.854 12.991 17.923-1.278 8.05-10.487 13.322-20.253 10.848z" fill="#0182fc"/></g><g><path d="m283.773 443.005c-10.923.427-21.81.107-32.588-.938-10.078-.97-16.965-9.042-15.454-17.049 1.511-8.029 9.694-13.305 18.314-12.486 9.449.915 18.994 1.196 28.571.822 8.733-.324 16.763 5.388 17.82 13.489 1.061 8.08-6.449 15.771-16.663 16.162z" fill="#1e9efd"/></g></g><g><g><path d="m388.944 125.013c7.231 7.988 13.918 16.453 20.015 25.336 5.708 8.302 3.956 18.769-3.149 22.759-7.121 4.004-16.428 1.126-21.316-5.968-5.346-7.788-11.209-15.21-17.548-22.213-5.769-6.397-6.417-16.118-.872-22.119 5.528-5.989 16.115-5.269 22.87 2.205z" fill="#fbd74c"/></g><g><path d="m336.071 81.199c9.327 5.702 18.208 12.006 26.598 18.852 7.849 6.396 9.103 16.932 3.405 22.758-5.71 5.844-15.445 5.696-22.164.234-7.356-6.002-15.142-11.528-23.319-16.528-7.447-4.574-10.962-13.779-7.348-21.107 3.598-7.312 14.111-9.547 22.828-4.209z" fill="#fbd74c"/></g></g></g><g><path d="m437.02 74.98c-48.353-48.351-112.64-74.98-181.02-74.98s-132.667 26.629-181.02 74.98c-48.351 48.353-74.98 112.64-74.98 181.02 0 45.551 12.133 90.297 35.086 129.401 2.097 3.572 6.694 4.768 10.265 2.671 3.572-2.097 4.768-6.692 2.671-10.265-21.603-36.803-33.022-78.923-33.022-121.807 0-64.374 25.068-124.894 70.588-170.413 45.518-45.519 106.039-70.587 170.412-70.587s124.894 25.068 170.412 70.587c45.52 45.519 70.588 106.039 70.588 170.413s-25.068 124.894-70.588 170.413c-45.518 45.519-106.039 70.587-170.412 70.587-73.884 0-142.671-33.214-188.725-91.125-2.578-3.242-7.296-3.781-10.538-1.202-3.242 2.578-3.78 7.296-1.202 10.538 48.916 61.511 121.983 96.789 200.465 96.789 68.38 0 132.667-26.629 181.02-74.98 48.351-48.353 74.98-112.64 74.98-181.02s-26.629-132.667-74.98-181.02z"/><path d="m475.109 255.495c4.14-.149 7.374-3.626 7.225-7.766-2.118-58.665-26.626-113.542-69.007-154.52-42.49-41.084-98.363-63.709-157.327-63.709-124.893 0-226.5 101.607-226.5 226.5s101.607 226.5 226.5 226.5c114.163 0 210.797-85.371 224.778-198.581.508-4.111-2.413-7.855-6.524-8.363-4.104-.508-7.855 2.413-8.362 6.524-13.055 105.707-103.288 185.42-209.892 185.42-116.621 0-211.5-94.878-211.5-211.5s94.879-211.5 211.5-211.5c55.053 0 107.223 21.128 146.9 59.493 39.579 38.27 62.466 89.508 64.443 144.278.15 4.14 3.635 7.374 7.766 7.224z"/><path d="m392.279 273.005c0-14.012-11.399-25.412-25.412-25.412-11.402 0-21.073 7.549-24.281 17.912h-19.259c-1.117-6.367-3.625-12.258-7.204-17.349l7.934-7.934c3.225 1.581 6.734 2.393 10.252 2.393 5.958 0 11.915-2.268 16.45-6.802h.001c4.394-4.394 6.813-10.236 6.813-16.45s-2.42-12.056-6.813-16.45c-9.072-9.071-23.829-9.069-32.901 0-7.212 7.213-8.668 18.016-4.409 26.703l-7.934 7.934c-5.091-3.579-10.982-6.087-17.349-7.204v-19.259c10.362-3.207 17.911-12.879 17.911-24.281 0-14.012-11.399-25.412-25.411-25.412-14.013 0-25.412 11.399-25.412 25.412 0 11.403 7.549 21.074 17.912 24.281v19.259c-6.367 1.117-12.258 3.625-17.349 7.204l-7.929-7.929c1.554-3.155 2.398-6.638 2.398-10.258 0-6.214-2.42-12.056-6.813-16.45-9.069-9.07-23.829-9.072-32.9 0-4.395 4.394-6.814 10.236-6.814 16.45s2.42 12.056 6.814 16.451c4.535 4.535 10.492 6.802 16.449 6.802 3.518 0 7.029-.812 10.254-2.393l7.935 7.935c-3.579 5.091-6.087 10.982-7.204 17.349h-19.259c-3.207-10.363-12.879-17.912-24.281-17.912-14.012 0-25.411 11.399-25.411 25.412s11.399 25.412 25.411 25.412c11.403 0 21.074-7.549 24.281-17.912h19.259c1.117 6.367 3.625 12.258 7.204 17.349l-7.935 7.935c-8.687-4.26-19.489-2.803-26.704 4.41-9.07 9.07-9.07 23.83 0 32.9 4.536 4.536 10.493 6.803 16.451 6.803 5.957 0 11.914-2.268 16.45-6.803 7.213-7.213 8.669-18.016 4.409-26.703l7.935-7.935c5.091 3.579 10.982 6.087 17.349 7.204v19.259c-10.363 3.207-17.912 12.879-17.912 24.281 0 14.012 11.399 25.412 25.412 25.412 14.012 0 25.411-11.399 25.411-25.412 0-11.402-7.549-21.074-17.911-24.281v-19.259c6.367-1.117 12.258-3.625 17.349-7.204l7.934 7.934c-4.259 8.686-2.804 19.49 4.409 26.703 4.536 4.536 10.493 6.803 16.45 6.803 5.958 0 11.915-2.268 16.451-6.803 9.07-9.07 9.07-23.83 0-32.9-7.214-7.214-18.017-8.669-26.703-4.41l-7.935-7.935c3.579-5.091 6.087-10.982 7.204-17.349h19.259c3.207 10.363 12.878 17.912 24.281 17.912 14.014-.001 25.413-11.401 25.413-25.413zm-111.611 28.323c-15.617 0-28.323-12.706-28.323-28.323s12.706-28.323 28.323-28.323 28.323 12.706 28.323 28.323-12.706 28.323-28.323 28.323zm47.8-87.81c1.561-1.561 3.636-2.42 5.844-2.42 2.207 0 4.282.859 5.844 2.421 1.561 1.561 2.42 3.636 2.42 5.843 0 2.208-.859 4.283-2.42 5.843-3.223 3.222-8.467 3.223-11.688.001-3.222-3.223-3.222-8.466 0-11.688zm-47.8-37.124c5.741 0 10.411 4.67 10.411 10.412s-4.67 10.412-10.411 10.412-10.412-4.67-10.412-10.412 4.671-10.412 10.412-10.412zm-59.487 48.811c-1.562-1.561-2.421-3.636-2.421-5.844 0-2.207.859-4.282 2.421-5.843 1.561-1.561 3.636-2.42 5.843-2.42 2.208 0 4.283.859 5.844 2.42h.001c1.561 1.561 2.42 3.636 2.42 5.843 0 2.208-.859 4.283-2.42 5.843-3.222 3.221-8.466 3.225-11.688.001zm-26.713 58.212c-5.741 0-10.411-4.67-10.411-10.412s4.67-10.412 10.411-10.412 10.412 4.67 10.412 10.412-4.671 10.412-10.412 10.412zm38.399 49.075c-3.221 3.223-8.466 3.221-11.687 0-3.223-3.222-3.223-8.465 0-11.687 1.561-1.561 3.636-2.42 5.843-2.42 2.208 0 4.283.859 5.844 2.42 1.562 1.561 2.421 3.636 2.421 5.844 0 2.207-.859 4.282-2.421 5.843zm47.801 37.124c-5.741 0-10.412-4.67-10.412-10.412s4.671-10.412 10.412-10.412 10.411 4.67 10.411 10.412-4.67 10.412-10.411 10.412zm53.644-51.231c2.207 0 4.282.859 5.843 2.42 3.223 3.222 3.223 8.465 0 11.687-3.221 3.221-8.464 3.223-11.687 0-3.222-3.223-3.222-8.465 0-11.688 1.56-1.56 3.636-2.419 5.844-2.419zm32.555-34.968c-5.741 0-10.411-4.67-10.411-10.412s4.67-10.412 10.411-10.412 10.412 4.67 10.412 10.412-4.671 10.412-10.412 10.412z"/><path d="m325.882 398.197c0 15.76 12.821 28.581 28.581 28.581s28.581-12.821 28.581-28.581c0-15.759-12.821-28.581-28.581-28.581s-28.581 12.822-28.581 28.581zm42.162 0c0 7.489-6.093 13.581-13.581 13.581s-13.581-6.092-13.581-13.581c0-7.488 6.093-13.581 13.581-13.581s13.581 6.092 13.581 13.581z"/><path d="m109.913 340.208c16.659 0 30.212-13.553 30.212-30.211 0-16.659-13.553-30.211-30.212-30.211-16.658 0-30.211 13.553-30.211 30.211s13.553 30.211 30.211 30.211zm0-45.423c8.388 0 15.212 6.824 15.212 15.211s-6.824 15.211-15.212 15.211-15.211-6.824-15.211-15.211 6.823-15.211 15.211-15.211z"/><path d="m436.786 218.438c0-14.321-11.65-25.971-25.972-25.971s-25.972 11.65-25.972 25.971 11.65 25.971 25.972 25.971 25.972-11.651 25.972-25.971zm-25.972 10.971c-6.05 0-10.972-4.922-10.972-10.971s4.922-10.971 10.972-10.971 10.972 4.922 10.972 10.971-4.922 10.971-10.972 10.971z"/><path d="m132.437 132.021c-2.929-2.929-7.677-2.93-10.607 0-2.929 2.929-2.929 7.678 0 10.606l6.154 6.154c-1.101 3.276-1.682 6.746-1.682 10.311 0 8.601 3.331 16.669 9.38 22.718 6.05 6.049 14.117 9.38 22.719 9.38 3.565 0 7.035-.581 10.311-1.681l6.154 6.154c1.465 1.465 3.384 2.197 5.304 2.197 1.919 0 3.839-.732 5.304-2.197 2.929-2.929 2.929-7.678 0-10.606l-3.8-3.8 6.016-6.016 3.799 3.799c1.465 1.465 3.384 2.197 5.304 2.197 1.919 0 3.839-.732 5.304-2.197 2.929-2.929 2.929-7.678 0-10.606l-3.8-3.8 6.017-6.017 3.8 3.8c1.465 1.464 3.385 2.197 5.304 2.197s3.839-.732 5.304-2.197c2.929-2.929 2.929-7.678 0-10.606l-4.636-4.636c2.684-4.757 4.121-10.156 4.121-15.788 0-8.601-3.332-16.669-9.381-22.718-6.05-6.049-14.117-9.38-22.718-9.38-5.632 0-11.031 1.437-15.788 4.121l-4.635-4.635c-2.93-2.929-7.678-2.929-10.607 0s-2.929 7.678 0 10.606l3.8 3.8-6.016 6.016-3.8-3.8c-2.93-2.929-7.678-2.93-10.607 0-2.929 2.929-2.929 7.678 0 10.606l3.8 3.8-6.016 6.016zm13.852 14.961 27.706-27.706c3.216-3.216 7.517-4.987 12.11-4.987 4.595 0 8.896 1.771 12.112 4.988 3.216 3.216 4.987 7.517 4.987 12.111s-1.771 8.895-4.988 12.111l-27.705 27.706c-6.678 6.679-17.545 6.679-24.223 0-6.678-6.678-6.678-17.545.001-24.223z"/><path d="m82.803 182.539c-2.928-2.93-7.677-2.929-10.606 0s-2.929 7.678.001 10.606l11.755 11.754c1.464 1.465 3.384 2.197 5.303 2.197s3.839-.732 5.304-2.197c2.929-2.929 2.929-7.678-.001-10.606z"/><path d="m429.197 299.303c1.464 1.465 3.384 2.197 5.303 2.197s3.839-.732 5.304-2.197c2.929-2.929 2.929-7.678-.001-10.606l-11.755-11.754c-2.928-2.93-7.677-2.929-10.606 0s-2.929 7.678.001 10.606z"/><path d="m223.677 88.066c1.919 0 3.839-.732 5.304-2.197l11.755-11.755c2.929-2.929 2.929-7.678 0-10.606-2.93-2.929-7.678-2.929-10.607 0l-11.755 11.755c-2.929 2.929-2.929 7.678 0 10.606 1.464 1.464 3.384 2.197 5.303 2.197z"/><path d="m391.783 341.244c1.919 0 3.839-.732 5.304-2.197l11.755-11.755c2.929-2.929 2.929-7.678 0-10.606-2.93-2.929-7.678-2.929-10.607 0l-11.755 11.755c-2.929 2.929-2.929 7.678 0 10.606 1.464 1.464 3.384 2.197 5.303 2.197z"/><path d="m262.288 119.308h16.624c4.143 0 7.5-3.358 7.5-7.5s-3.357-7.5-7.5-7.5h-16.624c-4.143 0-7.5 3.358-7.5 7.5s3.358 7.5 7.5 7.5z"/><path d="m92.981 250.328c1.465 1.465 3.384 2.197 5.304 2.197 1.919 0 3.839-.732 5.303-2.197l11.755-11.754c2.93-2.929 2.93-7.677.001-10.606s-7.678-2.93-10.606 0l-11.755 11.754c-2.93 2.928-2.93 7.677-.002 10.606z"/><path d="m120.693 397.377c8.778 6.923 18.112 13.309 27.742 18.979 4.209 2.482 8.886 3.76 13.484 3.759 1.987 0 3.957-.253 5.87-.736 2.6 6 7.714 10.871 14.189 13.463 10.273 4.121 20.925 7.584 31.656 10.294 2.229.564 4.483.842 6.707.842 4.52 0 8.901-1.163 12.675-3.387 4.186 5.03 10.478 8.27 17.445 8.94 7.935.769 15.959 1.155 23.961 1.155 3.221 0 6.438-.063 9.643-.188 7.525-.29 14.44-3.537 18.974-8.909 3.849-4.561 5.564-10.145 4.833-15.716-1.524-11.697-12.731-20.495-25.55-20.014-9.158.357-18.431.091-27.567-.794-5.923-.564-11.62.938-16.226 3.89-3.335-4.332-8.189-7.666-13.954-9.133-8.804-2.223-17.54-5.063-25.978-8.448-5.519-2.202-11.394-2.337-16.637-.795-1.988-5.104-5.719-9.679-10.854-12.717-7.898-4.651-15.553-9.887-22.764-15.574-10.068-7.907-24.309-7.393-32.417 1.165-3.874 4.082-5.771 9.607-5.34 15.56.511 7.015 4.195 13.709 10.108 18.364zm122.41 29.028c.698-3.713 4.708-6.457 9.185-6.457.343 0 .688.016 1.036.049 9.796.948 19.751 1.235 29.57.852 5.043-.177 9.58 2.936 10.105 6.971.227 1.724-.648 3.179-1.423 4.096-1.793 2.125-4.817 3.469-8.09 3.594h-.006c-10.496.41-21.116.104-31.576-.909-3.196-.308-5.97-1.737-7.61-3.921-.729-.969-1.527-2.497-1.191-4.275zm-61.647-17.807c1.311-2.576 4.313-4.067 7.564-4.067 1.326 0 2.694.248 4.007.771 9.046 3.628 18.425 6.678 27.863 9.061 4.74 1.206 8.075 5.456 7.434 9.479-.283 1.784-1.553 2.956-2.568 3.625-2.275 1.499-5.354 1.91-8.437 1.128l-.006-.001c-10.086-2.546-20.095-5.801-29.756-9.675-2.955-1.183-5.2-3.325-6.159-5.875-.426-1.138-.764-2.833.058-4.446zm-54.644-34.822c1.346-1.42 3.321-2.124 5.45-2.124 2.288 0 4.755.814 6.807 2.425 7.729 6.096 15.948 11.719 24.416 16.706 4.229 2.501 6.253 7.526 4.509 11.204-.772 1.631-2.317 2.398-3.478 2.754-2.609.802-5.693.327-8.461-1.305l-.004-.002c-9.049-5.328-17.819-11.328-26.073-17.838-2.572-2.025-4.229-4.89-4.429-7.664-.087-1.198.06-2.89 1.263-4.156z"/><path d="m330.499 86.757c3.802 1.645 8.217-.105 9.861-3.906 1.645-3.802-.104-8.217-3.906-9.861-11.771-5.091-24.922-1.092-29.938 9.102-5.217 10.579-.759 24.115 10.163 30.822 7.821 4.782 15.389 10.145 22.5 15.948 4.624 3.76 10.205 5.659 15.682 5.752.371 5.458 2.539 10.927 6.525 15.347 6.095 6.734 11.789 13.942 16.933 21.436 4.867 7.064 12.728 11.004 20.495 11.004 3.688 0 7.355-.889 10.67-2.752 4.948-2.779 8.419-7.52 9.773-13.349 1.568-6.749.067-14.111-4.114-20.193-6.261-9.124-13.204-17.913-20.638-26.126-4.678-5.174-11.014-8.278-17.538-8.639-.697-6.503-4.133-12.682-9.541-17.089-.121-.099-.244-.195-.418-.33-3.218-2.608-7.94-2.111-10.549 1.106-2.607 3.219-2.111 7.941 1.107 10.549l.364.287c2.489 2.028 4.005 4.756 4.159 7.484.068 1.211-.115 2.926-1.38 4.219-2.843 2.909-8.257 2.755-12.059-.336-7.625-6.222-15.75-11.98-24.136-17.107-4.303-2.643-6.343-7.756-4.544-11.403 1.459-2.965 6.181-3.847 10.529-1.965zm41.087 41.138c1.212-1.313 2.894-1.593 4.106-1.593h.04c2.725.014 5.513 1.377 7.647 3.74l.004.004c6.984 7.716 13.509 15.975 19.396 24.552 1.804 2.624 2.484 5.65 1.867 8.304-.275 1.185-.934 2.782-2.512 3.668-3.546 1.995-8.69.341-11.457-3.675-5.514-8.034-11.628-15.773-18.162-22.993-3.275-3.63-3.694-9.015-.929-12.007z"/></g></g></svg>
